<?xml version="1.0" standalone="no"?>
<!DOCTYPE svg PUBLIC "-//W3C//DTD SVG 20010904//EN"
 "http://www.w3.org/TR/2001/REC-SVG-20010904/DTD/svg10.dtd">
<svg version="1.0" xmlns="http://www.w3.org/2000/svg"
 width="640.000000pt" height="640.000000pt" viewBox="0 0 640.000000 640.000000"
 preserveAspectRatio="xMidYMid meet">
<metadata>
Created by potrace 1.11, written by Peter Selinger 2001-2013
</metadata>
<g transform="translate(0.000000,640.000000) scale(0.100000,-0.100000)"
fill="#000000" stroke="none">
<path d="M2058 6380 c-125 -26 -181 -46 -288 -102 -115 -61 -193 -122 -294
-229 -162 -172 -285 -412 -331 -649 -8 -41 -17 -88 -21 -105 -13 -62 -12 -331
2 -418 50 -331 186 -605 403 -810 290 -274 654 -359 1026 -242 l80 25 71 -29
c39 -16 104 -37 145 -46 41 -9 80 -19 87 -21 23 -7 12 -63 -29 -141 -37 -69
-39 -78 -24 -89 9 -7 29 -10 45 -7 29 4 30 4 24 -39 -5 -42 -18 -119 -28 -167
-61 -286 -61 -289 -61 -441 2 -299 97 -426 502 -666 l142 -84 -28 -62 c-53
-118 -66 -196 -65 -378 1 -143 4 -178 27 -265 22 -84 25 -117 23 -210 -4 -125
-6 -136 -46 -247 -31 -86 -85 -190 -156 -300 -51 -78 -56 -113 -20 -130 14 -6
31 -8 39 -5 29 11 171 251 218 367 19 48 28 78 55 175 14 49 13 252 -2 310
-53 215 -60 370 -23 520 15 60 53 165 60 165 3 0 14 -8 23 -19 14 -15 18 -45
21 -167 2 -82 6 -162 9 -179 4 -16 11 -55 17 -85 31 -158 105 -317 200 -426
23 -27 26 -38 21 -75 -8 -66 -7 -237 2 -298 20 -139 75 -259 166 -361 32 -36
90 -128 110 -176 18 -41 18 -42 -3 -65 -47 -52 -47 -54 -31 -77 12 -18 18 -20
39 -10 14 6 25 16 25 21 0 6 3 7 7 4 3 -4 8 -33 10 -64 2 -32 9 -64 17 -71 20
-20 65 -7 75 21 11 28 6 116 -10 176 -10 40 -9 51 8 91 48 106 57 226 28 341
-35 138 -139 309 -274 451 l-60 63 1 160 c2 176 -4 239 -32 350 -26 102 -118
288 -172 347 -7 8 -28 30 -46 50 l-34 36 18 113 c9 63 26 143 36 179 13 41 22
110 25 186 8 173 -19 320 -97 538 -61 170 -25 403 96 620 l26 47 22 -19 c60
-55 97 -47 80 17 -15 54 -9 113 17 162 15 31 24 39 37 34 106 -41 293 -59 422
-41 410 60 751 398 869 862 28 110 35 179 36 329 0 237 -39 413 -137 608 -162
321 -430 530 -752 588 -64 11 -257 8 -311 -5 -130 -31 -231 -72 -317 -127
l-47 -31 -63 45 c-221 156 -521 226 -763 178 -67 -14 -214 -59 -230 -71 -5 -5
-37 3 -69 17 -160 67 -377 88 -548 53z m1782 -2345 c41 -21 37 -29 -9 -22 -38
5 -40 3 -47 -26 -4 -18 -30 -55 -65 -90 -47 -47 -57 -63 -48 -73 6 -8 18 -14
26 -14 8 0 13 -3 11 -7 -1 -5 -22 -47 -45 -94 -42 -88 -79 -193 -91 -264 -4
-22 -7 -92 -6 -155 0 -112 14 -185 49 -265 23 -52 69 -225 59 -225 -2 0 -13
19 -25 43 -27 53 -73 107 -191 227 -109 110 -165 176 -221 257 -53 78 -94 166
-79 171 19 6 14 28 -13 68 -19 27 -25 50 -25 88 0 79 8 96 42 96 49 0 176 30
264 62 98 35 222 108 314 184 36 29 66 54 68 54 2 0 16 -7 32 -15z m-707 -675
c47 -85 142 -202 270 -333 84 -87 153 -167 176 -207 45 -75 80 -180 87 -260 3
-30 7 -67 8 -81 2 -15 -6 -56 -18 -91 -21 -64 -84 -178 -97 -178 -16 0 -319
186 -380 234 -72 55 -140 129 -166 179 -31 61 -51 159 -51 257 0 95 15 200 61
425 14 66 28 142 32 169 l7 50 26 -65 c14 -35 34 -80 45 -99z m620 -1473 c97
-153 137 -293 141 -494 2 -73 0 -133 -3 -133 -8 0 -54 74 -84 135 -43 88 -69
174 -91 309 -3 16 -8 79 -12 139 -8 124 -4 128 49 44z m304 -909 c86 -104 114
-146 153 -230 43 -91 60 -160 60 -241 0 -68 -16 -157 -29 -157 -3 0 -21 25
-39 55 -18 30 -56 83 -84 118 -102 126 -140 240 -143 425 -1 61 2 112 6 112 5
0 39 -37 76 -82z"/>
</g>
</svg>
